<svg version="1.1" viewBox="0 0 128 128" xmlns="http://www.w3.org/2000/svg">
 <g transform="translate(0 -263.13)">
  <path transform="matrix(.99542 .095557 -.9852 .17142 0 0)" d="m1506.6 1414.4a45.674 27.328 0 0 1-45.06 27.661 45.674 27.328 0 0 1-46.28-26.93 45.674 27.328 0 0 1 44.958-27.721 45.674 27.328 0 0 1 46.38 26.868" fill="#5d5d5d" fill-rule="evenodd"/>
  <path d="m42.577 386.59c-5.082-0.80785-1.3427-8.2472-0.08428-11.327 0.61691-5.1235-3.5362 2.0829-2.4839 4.5964-1.181 1.0768-4.7003 0.78581-6.8089 1.2299-4.7808-0.77557-11.034 1.0863-14.882-1.9791-1.1173-5.0112 3.0373-8.609 6.7763-10.468 0.47287-4.0324 1.1102-8.0345 0.82612-12.139-0.06199-1.9602-0.27679-3.9537 0.97578-5.6273 1.4815-4.7381 6.6919-7.0366 8.5078-11.129 1.4083-4.5428 3.1744-8.9734 5.3284-13.183 1.3905-2.0315 3.7766-3.5264 5.0033-5.5473-0.14577-5.8433 0.28418-11.683 0.56476-17.501-2.4588-5.1932 1.8581-9.3075 4.0842-13.41 1.2377-4.6471-1.3483-11.072 3.3714-14.213 4.0423-1.703 6.4963-6.0182 11.082-6.6879 6.6938-1.6768 14.583-2.3622 20.266 2.3277 6.1215 4.4438 4.169 13.273 8.6619 18.681 5.7177 1.0999 5.8419 6.865 6.3302 11.521 1.4932 7.3017 1.1941 14.836 0.13468 22.162-0.16461 5.9561 1.3004 11.822 0.95775 17.799 0.81061 4.646-1.0155 8.7478-3.7005 11.942-0.54717 5.1704-1.2523 10.343-0.60952 15.543 3.2386 0.3693 8.065 3.0242 7.2497 6.921-1.949 3.1453-3.2438 5.3565-2.4067 9.079-3.5528 2.8038-9.7502 1.2662-14.159 0.72792-2.0323-0.78067-7.455 1.197-7.5539-1.6361 1.1003-5.0816-5.5517-4.7972-9.0543-5.4323-2.4925 0.54096-3.5745-1.6575-5.2921-2.9196-2.7822-0.61196-4.6493 0.19444-3.6671 3.0862 1.1122 4.6362 0.74207 9.6489-5.557 7.8607-4.6203-0.0419-9.2465-0.0216-13.861-0.27683z" fill="#f3f3f3" stroke="#dfdfdf" stroke-width="3"/>
  <path d="m44.883 386.57c-4.1211 1.489-5.9126-4.0623-1.4949-4.6139 3.9377-1.1787 7.5765 0.21166 10.787 0.90403 1.4042-1.8365 2.1954-4.4273 2.7158-0.72736 3.9868 0.21314 5.3734 6.163-0.13412 4.6502-3.954-0.0136-7.9336 0.1353-11.874-0.21295zm51.267-0.13004c-4.6394-0.75531-9.4017-0.46107-14.02-1.3405-1.4161-4.2229 5.4677-2.9817 5.7325-5.2135 1.037 4.4314 2.6313-1.5819 4.7138 1.3545 2.9621-0.86625 12.594 2.3047 7.0515 5.1004-1.1272 0.27785-2.3433 0.4317-3.478 0.0991zm-67.962-5.7782c-2.6609-0.77954-9.9274 0.9991-9.1709-2.9284 3.9454-1.0271 9.3875 2.6568 12.068-1.0675 0.11403-2.937 3.7606-4.6408-0.35362-6.0631 4.662-1.2174 5.638-6.4373 7.0022-9.8596-3.1507-2.763-7.8215-5.0559-11.583-2.7223-0.95181-5.513 3.6799-10.074 7.3437-13.591 3.5009-3.0063 3.2106-8.4726 5.6402-12.346 1.0966-4.0024 4.4904-6.5659 7.2201-9.4896 0.08765-6.1623 0.48308-12.315 1.1211-18.44-2.8761-4.8756 0.54541-10.723 6.2892-10.248 3.8571 1.5979 7.2337 6.2052 5.4821 10.313-1.8451 1.6745 5.2601 3.809 1.7955 4.6374-4.1321 1.7932 7.4736 3.1964 2.0927 4.9911-2.599-0.13905-4.985-0.18676-1.1418 0.73134 2.7585 0.0835 5.4111-0.36245 5.403-3.1003 1.1306-4.3926-1.7286-10.065-0.02037-15.116 0.83217-5.4358-6.0808-8.0997-3.2531-13.791-0.77368-3.3431 2.6664-8.0571 2.2703-9.8916-3.7699 5.7614-5.1468 14.07-12.231 16.906-4.5399 2.2105-2.2906-7.3332-1.91-10.188 3.2506-4.1971 8.3779-7.6915 13.487-9.6823 5.1327-1.4399 10.858-2.5519 15.734 0.35388 6.3437 2.2882 7.6291 9.5467 9.1297 15.27-0.29069 6.2942 8.3462 5.7359 8.3766 11.581 1.5058 8.1405 2.8737 16.525 1.1484 24.742-0.77269 7.2479 1.4332 14.36 0.85784 21.614 1.3536 6.8309-5.4269 9.2071-10.813 10.018-4.6811 2.2026-10.67 0.63759-13.176-4.0218-2.8704-4.5145-2.1871-10.117-3.1355-15.19-0.65203-4.6637 0.71241-10.746-3.2584-14.171-2.7439-2.5506-3.8408-1.4386-2.5653 1.5958-3.6852 4.6032-2.0966 11.067-4.2431 16.313-1.797 7.408-9.6879 11.162-16.806 10.906-5.3533 0.48645-2.433 8.937-1.9775 12.645-1.1246 3.596-0.65164 7.6278-0.9362 11.179-5.6608-3.1302-5.9362 4.5882-7.5641 7.1162-2.652-0.98955-3.9769 2.4594-7.384 1.081l-0.93816-0.0865zm7.0901-2.9202c2.6263-2.3451-2.239-7.5768-2.2736-2.2293-1.462 1.6128 0.72013 3.3735 2.2736 2.2293zm40.461-58.256c-1.122-4.8162-2.2168 0.47043 0 0zm-17.796-6.1761c-2.1798-0.8262 0.04573 1.5685 0 0zm19.562 66.038c-5.1019-0.15664-11.254-1.9348-10.685-7.3144-3.6559 3.3257-9.588 3.5151-7.2101-2.8903-1.1848-6.3991 7.1751-3.1152 9.2794-6.9895-2.1776-3.1194 2.3966-4.0592 1.032-0.76774-0.35961 2.5691 1.22 4.063-0.58163 6.3069-0.23214 3.2659 7.2523-6.0776 6.6638 3e-3 -2.0931 1.5676-0.54864 5.6998 1.9698 4.4632-1.8851 2.6781 7.506 6.4049 1.4461 7.6464-0.65866 0.0128-1.3549-0.0802-1.9145-0.45726zm23.4-0.43405c-0.92685-2.7277 4.2172-3.2627 1.1772-0.17574-0.23685 0.36024-0.86072 0.59044-1.1772 0.17574zm-75.166-8.7556c-0.92254-2.6816 0.65326-6.0304 1.0588-8.627 0.89797 2.5637 4.1216 7.3903 2.6786 9.2441-1.2013-0.0722-2.7654 0.30981-3.7374-0.61711zm38.397-7.222c0.99109-1.421 1.0899 1.8095 0 0zm10.288-1.0474c-1.4259-1.7132-4.4777-1.2764-1.4124-3.2798 2.4175-2.6883 6.9495-8.505 8.8435-1.9986 4.0276 4.9313-5.2115 8.2744-7.4311 5.2784zm-13.59-4.3228c1.3743-0.77941 0.71164 1.2932 0 0zm-0.52172-6.7752c-0.97414-6.5374 4.247 2.3346 0 0z" fill="#c4ddf2"/>
  <path d="m45.556 386.19c0.66228-2.3589 3.7027-4.5363 4.0094-0.52206 1.5815-2.3577 7.9068 1.2063 2.4325 0.70492-2.1406 4e-3 -4.3231 0.13704-6.4419-0.18286zm11.462-0.07c1.624-3.5661 5.2506 1.3095 0.47208 0.23273l-0.47211-0.23234zm38.815-0.40331c-2.5461-1.6362 4.9628-3.1436 2.781 0.29654-0.93277 0.12534-1.8946 0.0166-2.781-0.29654zm-54.662-0.81784c1.1052-3.4533 2.2207 3.2689 0 0zm50.388 0.66545c-3.2342-0.12501-3.4701-1.5985-0.1659-1.6437 2.7271-0.17369 3.4363 2.7815 0.1659 1.6437zm-7.5874-0.85996c-1.0481-1.1487 4.4337 1.059-3.3e-5 0zm-56.371-4.8714c1.0545-0.99161 2.9735 1.0224 0.3322 0.23912zm41.603-2.9623c-2.4316-2.4316 1.1451-9.5622 1.2141-2.9248-0.39932 3.0291 6.2297 4.2889 0.46939 4.111-0.7501-0.0129-1.2882-0.6326-1.6835-1.1861zm-43.2-7.6508c-0.92601-1.9784 1.9904-6.3355 2.0987-1.6973 1.3578 1.8443-0.71401 3.7036-2.0987 1.6973zm4.2603-18.967c-3.262 2.854-3.3403 3.4568-3.6055 5.6523 5.554 0.17373 6.7013-1.5422 11.384 1.5248l2.6517 2.2097 1.9726 2.5556 0.63456 0.42568c1.4501-0.86539 0.89012-3.0816-0.18627-6.0478-1.0764-2.9662 1.0303-4.4348-0.96023-7.9252-1.863-2.2467-0.78295-0.97648-2.4413-3.0695l-1.8507-1.7961c-2.2968-0.55098-7.1305 6.03-7.5983 6.4706zm16.528-27.067c0.08681-3.5353-0.04382-7.0868 0.29594-10.608 4.5377-1.5951 7.6902 3.1993 12.613 2.5592 7.2411 0.0673 4.4582 9.1719 4.7477 13.802-0.56349 6.4095-1.7419 14.269-8.348 17.218-1.9784 0.8255-9.4903 1.2214-12.673 1.7225-2.2926-5.4691 3.0718-17.803 3.3637-24.694zm27.976 36.981c-1.6772-2.4511 2.4984-3.6548 3.739-5.2163 3.6392-0.80254 4.2931 7.0114-0.58295 6.1185-1.4259 0.67708-2.7239 1.1013-3.1561-0.9022zm8.1526-6.8823c-5.4047-1.8123-7.6258-8.0827-7.4744-13.346-0.84701-7.7711-0.51831-15.941 2.452-23.249-0.0418-3.3114-4.7649-2.1421-2.3665-6.0428 4.7668-2.5424 0.25772-8.9106 3.7423-12.873 1.5608-3.8717 0.37411-12.359-5.0353-7.4041-6.0149 2.9811-11.574-3.8586-7.2285-9.1534-0.2338-5.3522 5.5233-6.1485 8.3359-2.4403-4.54 1.793 3.3528 3.5749 4.283 6.0721 1.8026 4.4081 4.1327-3.5776 2.7269-5.439 3.232-0.87647 5.8687 8.831 6.1332 2.4785 1.4769 5.1524 3.7649 10.004 8.9201 12.152 1.1538 5.1931 2.2525 10.533 2.8246 15.863 0.78122 6.675-1.8177 13.224-0.48241 19.877 0.78245 5.4793 1.3884 11.132 0.25357 16.601-4.5488 1.024-8.0219 5.1656-12.691 6.5549-1.3833 0.62801-2.9351 0.83842-4.3938 0.34903zm-1.2179-53.913c1.6103-1.7254 0.57088-10.525-0.98978-5.0213-0.2777 1.1669-1.2585 10.504 0.98978 5.0213zm-5.606-12.82c3.0733-3.474-2.2681-1.1057-2.8511 0.48166 0.94733 0.40833 2.073 0.1656 2.8511-0.48166zm-2.3541-3.6632c-1.6754-1.1379 0.02932 2.8487 0 0zm-3.3405 29.836c2.0994-2.8094 3.9478 0.4368 0 0zm-18.44-2.761c-1.9464-3.1484 5.2988 1.6428 0.70217 0.38776l-0.70216-0.3878zm1.6001-1.8201c-4.8309 0.14826-7.0237-6.2501-6.2596-10.113 2.6494-4.9093 12.608-1.5731 10.558 3.6448-2.8641 1.3383-0.40678 9.0857-4.2981 6.4679zm-1.3774-21.653c-1.6795-3.3895 1.5263-11.251 4.9975-6.1222 1.9006 2.4068-4.1144 11.522-4.9975 6.1222zm9.1697-10.153c-1.283-3.7196 4.8861-5.4832 2.1559-0.7125-0.77431 1.9938-2.3936 5.6558-2.1559 0.7125zm23.602-0.94192c-2.5445-5.5082 4.5965 3.7859-3e-6 0zm-9.3256-0.28756c-0.505-2.016 3.5941 1.3209 1.1e-5 5e-5zm-5.2296-1.3952c-2.8361-1.5942 4.8368 0.0265 0 1.1e-4z" fill="#4f4f4f"/>
 </g>
</svg>
