<?xml version="1.0" standalone="no"?>
<!DOCTYPE svg PUBLIC "-//W3C//DTD SVG 20010904//EN"
 "http://www.w3.org/TR/2001/REC-SVG-20010904/DTD/svg10.dtd">
<svg version="1.0" xmlns="http://www.w3.org/2000/svg"
 width="700.000000pt" height="700.000000pt" viewBox="0 0 700.000000 700.000000"
 preserveAspectRatio="xMidYMid meet">
<metadata>
Created by potrace 1.11, written by Peter Selinger 2001-2013
</metadata>
<g transform="translate(0.000000,700.000000) scale(0.100000,-0.100000)"
fill="#000000" stroke="none">
<path d="M3929 6816 c-2 -2 -33 -6 -69 -10 -108 -10 -147 -16 -312 -55 -173
-40 -231 -71 -431 -232 -59 -47 -135 -101 -169 -119 -34 -19 -81 -51 -104 -72
-47 -43 -102 -123 -109 -157 -2 -12 -7 -26 -10 -31 -6 -10 -8 -19 -21 -85 -3
-16 -7 -112 -9 -212 -4 -276 -4 -273 -111 -438 -73 -113 -119 -203 -149 -290
-25 -72 -28 -197 -8 -265 18 -60 20 -120 8 -345 -13 -261 -14 -316 -15 -480 0
-117 -4 -165 -14 -180 -8 -11 -63 -71 -124 -133 -102 -103 -115 -122 -166
-225 -59 -122 -156 -345 -156 -360 0 -5 -6 -23 -14 -40 -8 -18 -31 -81 -51
-141 -51 -146 -70 -177 -180 -292 -224 -233 -240 -252 -284 -340 -56 -114 -80
-169 -86 -199 -4 -16 -8 -152 -9 -301 -2 -149 -6 -275 -9 -281 -3 -5 -9 -43
-13 -84 -3 -40 -8 -80 -9 -89 -2 -8 -4 -28 -4 -45 -1 -26 -10 -36 -69 -72 -83
-51 -189 -153 -236 -226 -62 -97 -81 -159 -81 -267 1 -121 6 -140 52 -170 46
-30 127 -68 156 -74 12 -3 47 -10 77 -16 30 -6 181 -13 335 -16 154 -2 285 -4
290 -5 6 -1 30 2 55 5 25 4 70 8 101 11 31 2 73 7 92 10 l36 7 -1 -75 c0 -118
45 -197 135 -237 54 -24 88 -26 536 -35 179 -4 334 -10 345 -15 12 -4 57 -7
101 -5 86 2 132 20 188 73 31 29 66 98 75 147 14 74 7 205 -18 328 -6 31 -8
62 -5 67 7 11 61 12 87 2 9 -4 41 -31 71 -59 81 -78 133 -101 247 -107 96 -5
246 -27 308 -45 98 -29 125 -61 119 -138 -8 -87 31 -151 107 -177 49 -17 79
-19 251 -17 55 1 110 0 121 -3 34 -7 79 -14 214 -31 296 -39 466 -18 610 76
51 33 51 33 44 74 -3 22 -8 73 -9 113 -3 88 16 144 91 275 52 91 53 93 51 167
-3 92 -35 157 -115 236 -54 53 -167 118 -249 144 l-43 13 -1 56 c-1 88 2 265
6 318 2 26 6 80 9 118 3 39 8 88 11 110 2 22 7 62 10 89 5 37 19 69 60 130
109 164 160 321 158 486 -2 137 -13 457 -16 475 -3 11 -8 65 -12 120 -4 55 -8
106 -10 115 -17 87 -26 359 -15 441 4 30 11 86 15 124 4 39 10 102 15 140 9
75 6 593 -3 635 -3 14 -8 50 -11 81 -3 31 -11 80 -17 110 -5 30 -12 70 -14 89
-2 19 -7 58 -10 85 -3 28 -8 70 -11 95 -8 76 -43 205 -74 269 -51 104 -148
192 -246 221 -31 9 -47 22 -68 58 -43 70 -80 174 -111 304 -56 242 -112 399
-174 495 -120 183 -363 326 -626 368 -43 7 -301 16 -306 11z"/>
</g>
</svg>
