<svg viewBox="0 0 128 128" xmlns="http://www.w3.org/2000/svg"><path d="M106.233 123.293a52.857 6.253 1.505 01-72.105.435 52.857 6.253 1.505 01-19.537-9.038 52.857 6.253 1.505 0172.063-.456 52.857 6.253 1.505 0119.697 9.038" fill="#5d5d5d" fill-rule="evenodd"/><path d="M42.577 123.46c-5.082-.808-1.343-8.247-.084-11.327.617-5.124-3.536 2.083-2.484 4.596-1.181 1.077-4.7.786-6.81 1.23-4.78-.775-11.033 1.087-14.881-1.979-1.117-5.011 3.037-8.609 6.776-10.468.473-4.032 1.11-8.034.826-12.139-.062-1.96-.276-3.954.976-5.627 1.482-4.738 6.692-7.037 8.508-11.13 1.408-4.542 3.174-8.973 5.328-13.182 1.39-2.032 3.777-3.527 5.004-5.547-.146-5.844.284-11.683.564-17.501-2.458-5.194 1.858-9.308 4.085-13.41 1.237-4.648-1.349-11.072 3.371-14.213 4.042-1.703 6.496-6.019 11.082-6.688 6.694-1.677 14.583-2.363 20.266 2.327 6.121 4.444 4.169 13.273 8.662 18.681 5.718 1.1 5.842 6.865 6.33 11.521 1.493 7.302 1.194 14.836.135 22.162-.165 5.956 1.3 11.822.958 17.8.81 4.645-1.016 8.747-3.701 11.941-.547 5.17-1.252 10.343-.61 15.543 3.24.37 8.065 3.025 7.25 6.921-1.949 3.146-3.244 5.357-2.407 9.08-3.552 2.803-9.75 1.266-14.159.727-2.032-.78-7.455 1.197-7.553-1.636 1.1-5.081-5.552-4.797-9.055-5.432-2.492.54-3.574-1.658-5.292-2.92-2.782-.612-4.65.195-3.667 3.087 1.112 4.636.742 9.648-5.557 7.86-4.62-.042-9.246-.021-13.86-.277z" fill="#f3f3f3" stroke="#dfdfdf" stroke-width="3"/><path d="M44.883 123.44c-4.121 1.489-5.913-4.062-1.495-4.614 3.938-1.179 7.577.212 10.787.904 1.404-1.836 2.196-4.427 2.716-.727 3.987.213 5.373 6.163-.134 4.65-3.954-.014-7.934.135-11.874-.213zm51.267-.13c-4.64-.755-9.402-.461-14.02-1.34-1.416-4.223 5.468-2.982 5.733-5.214 1.037 4.431 2.63-1.582 4.713 1.354 2.962-.866 12.594 2.305 7.052 5.1-1.127.279-2.343.433-3.478.1zm-67.962-5.778c-2.66-.78-9.927.999-9.17-2.929 3.945-1.027 9.387 2.657 12.067-1.067.114-2.937 3.76-4.64-.354-6.063 4.662-1.218 5.638-6.438 7.003-9.86-3.151-2.763-7.822-5.056-11.583-2.722-.952-5.513 3.68-10.074 7.343-13.591 3.501-3.006 3.211-8.473 5.64-12.346 1.097-4.003 4.491-6.566 7.22-9.49.088-6.162.484-12.315 1.122-18.44-2.876-4.875.545-10.723 6.289-10.248 3.857 1.598 7.234 6.205 5.482 10.313-1.845 1.675 5.26 3.81 1.796 4.638-4.133 1.793 7.473 3.196 2.092 4.99-2.599-.138-4.985-.186-1.142.732 2.759.084 5.412-.362 5.403-3.1 1.131-4.393-1.728-10.065-.02-15.116.832-5.436-6.08-8.1-3.253-13.791-.774-3.343 2.666-8.057 2.27-9.892-3.77 5.762-5.146 14.07-12.23 16.906-4.54 2.21-2.291-7.333-1.91-10.188 3.25-4.197 8.377-7.691 13.486-9.682 5.133-1.44 10.858-2.552 15.734.354 6.344 2.288 7.63 9.546 9.13 15.27-.29 6.294 8.346 5.736 8.377 11.58 1.505 8.141 2.873 16.526 1.148 24.743-.773 7.248 1.433 14.36.858 21.614 1.353 6.83-5.427 9.207-10.813 10.018-4.681 2.202-10.67.637-13.176-4.022-2.87-4.515-2.187-10.117-3.136-15.19-.652-4.664.713-10.746-3.258-14.171-2.744-2.55-3.84-1.439-2.565 1.596-3.686 4.603-2.097 11.067-4.243 16.313-1.797 7.408-9.688 11.162-16.806 10.906-5.354.486-2.433 8.937-1.978 12.645-1.125 3.596-.652 7.628-.936 11.179-5.66-3.13-5.936 4.588-7.564 7.116-2.652-.99-3.977 2.46-7.384 1.081l-.938-.087zm7.09-2.92c2.626-2.346-2.239-7.577-2.273-2.23-1.463 1.613.72 3.374 2.273 2.23zM75.74 56.356c-1.122-4.817-2.217.47 0 0zm-17.796-6.177c-2.18-.826.046 1.569 0 0zm19.562 66.038c-5.102-.156-11.254-1.934-10.685-7.314-3.656 3.326-9.588 3.515-7.21-2.89-1.185-6.4 7.175-3.115 9.28-6.99-2.178-3.12 2.396-4.059 1.031-.767-.36 2.569 1.22 4.063-.581 6.306-.232 3.266 7.252-6.077 6.664.003-2.094 1.568-.55 5.7 1.97 4.464-1.886 2.678 7.505 6.405 1.445 7.646-.658.013-1.354-.08-1.914-.457zm23.4-.434c-.927-2.727 4.217-3.262 1.177-.175-.237.36-.86.59-1.177.175zm-75.166-8.755c-.922-2.682.653-6.03 1.059-8.627.898 2.564 4.122 7.39 2.679 9.244-1.202-.072-2.766.31-3.738-.617zm38.397-7.222c.991-1.421 1.09 1.81 0 0zm10.288-1.048c-1.426-1.713-4.478-1.276-1.412-3.28 2.417-2.688 6.95-8.504 8.843-1.998 4.028 4.931-5.211 8.274-7.43 5.278zm-13.59-4.322c1.374-.78.712 1.293 0 0zm-.522-6.776c-.974-6.537 4.247 2.335 0 0z" fill="#c4ddf2"/><path d="M45.556 123.06c.662-2.359 3.703-4.536 4.01-.522 1.58-2.358 7.906 1.206 2.432.705-2.14.004-4.323.137-6.442-.183zm11.462-.07c1.624-3.566 5.25 1.31.472.233l-.472-.233zm38.815-.403c-2.546-1.637 4.963-3.144 2.781.296a5.996 5.996 0 01-2.781-.296zm-54.662-.818c1.105-3.453 2.22 3.269 0 0zm50.388.665c-3.234-.125-3.47-1.598-.166-1.643 2.727-.174 3.436 2.781.166 1.643zm-7.587-.86c-1.048-1.148 4.433 1.06 0 0zM27.6 116.703c1.054-.992 2.973 1.022.332.24zm41.603-2.962c-2.432-2.432 1.145-9.563 1.214-2.925-.4 3.029 6.23 4.289.47 4.11-.751-.012-1.29-.632-1.684-1.185zm-43.2-7.651c-.926-1.979 1.99-6.336 2.098-1.697 1.358 1.844-.714 3.703-2.098 1.697zm4.26-18.967c-3.262 2.854-3.34 3.457-3.606 5.652 5.554.174 6.702-1.542 11.384 1.525l2.652 2.21 1.973 2.555.634.426c1.45-.865.89-3.082-.186-6.048s1.03-4.435-.96-7.925c-1.863-2.247-.783-.977-2.442-3.07l-1.85-1.796c-2.297-.55-7.13 6.03-7.599 6.47zm16.528-27.067c.087-3.535-.044-7.087.296-10.608 4.538-1.595 7.69 3.2 12.613 2.559 7.24.067 4.458 9.172 4.748 13.802-.564 6.41-1.742 14.269-8.348 17.218-1.979.826-9.49 1.221-12.673 1.723-2.293-5.47 3.071-17.803 3.363-24.694zm27.976 36.98c-1.677-2.45 2.498-3.654 3.739-5.215 3.64-.803 4.293 7.01-.583 6.118-1.426.677-2.724 1.101-3.156-.902zm8.152-6.881c-5.404-1.813-7.625-8.083-7.474-13.346-.847-7.772-.518-15.941 2.452-23.25-.042-3.31-4.765-2.142-2.366-6.042 4.766-2.543.257-8.91 3.742-12.873 1.56-3.872.374-12.36-5.035-7.404-6.015 2.98-11.574-3.859-7.229-9.154-.234-5.352 5.523-6.148 8.336-2.44-4.54 1.793 3.353 3.575 4.283 6.072 1.803 4.408 4.133-3.578 2.727-5.439 3.232-.876 5.869 8.831 6.133 2.479 1.477 5.152 3.765 10.004 8.92 12.152 1.154 5.193 2.253 10.533 2.825 15.863.781 6.675-1.818 13.224-.483 19.877.783 5.479 1.389 11.132.254 16.6-4.549 1.025-8.022 5.166-12.691 6.555-1.383.628-2.935.839-4.394.35zm-1.217-53.913c1.61-1.726.57-10.525-.99-5.022-.278 1.167-1.259 10.504.99 5.022zm-5.606-12.82c3.073-3.474-2.268-1.106-2.851.481.947.409 2.073.166 2.85-.481zm-2.354-3.664c-1.676-1.138.029 2.849 0 0zm-3.341 29.836c2.1-2.81 3.948.437 0 0zm-18.44-2.76c-1.946-3.15 5.299 1.642.702.387l-.702-.388zm1.6-1.82c-4.83.148-7.024-6.25-6.26-10.114 2.65-4.91 12.609-1.573 10.559 3.645-2.865 1.338-.407 9.086-4.299 6.468zM52.185 23.36c-1.68-3.39 1.526-11.25 4.997-6.122 1.9 2.407-4.114 11.522-4.997 6.122zm9.17-10.153c-1.284-3.72 4.886-5.483 2.155-.712-.774 1.994-2.393 5.656-2.156.712zm23.601-.942c-2.544-5.508 4.597 3.786 0 0zm-9.325-.287c-.505-2.016 3.594 1.32 0 0zm-5.23-1.395c-2.836-1.595 4.837.026 0 0z" fill="#4f4f4f"/></svg>