<svg data-name="Layer 1" xmlns="http://www.w3.org/2000/svg" xmlns:xlink="http://www.w3.org/1999/xlink" width="1014.92" height="616.5" viewBox="0 0 1014.92 616.5"><defs><linearGradient id="a" x1="223" y1="366.33" x2="223" gradientUnits="userSpaceOnUse"><stop offset="0" stop-color="gray" stop-opacity=".25"/><stop offset=".54" stop-color="gray" stop-opacity=".12"/><stop offset="1" stop-color="gray" stop-opacity=".1"/></linearGradient><linearGradient id="b" x1="315" y1="481.74" x2="315" y2="115.42" gradientTransform="matrix(-1 0 0 1 1106.92 -115.42)" xlink:href="#a"/><linearGradient id="c" x1="508" y1="616.5" x2="508" y2="159.83" xlink:href="#a"/></defs><path fill="url(#a)" d="M0 0h446v366.33H0z" opacity=".5"/><path fill="#f2f2f2" d="M5.2 6.93h434.74v353.34H5.2z"/><path fill="#2190eb" d="M5.2 6.93h434.74v78.81H5.2z"/><path opacity=".1" d="M5.2 6.93h434.74v78.81H5.2z"/><path fill="#e0e0e0" d="M39.84 114.31H405.3v45.9H39.84zm0 80.54h266.73v15.59H39.84zm0 26.85h173.2v15.59H39.84zm0 26.85h228.63v15.59H39.84zm0 26.84h266.73v15.59H39.84zm0 26.85h89.2v15.59h-89.2z"/><path fill="url(#b)" d="M568.92 0h446v366.33h-446z" opacity=".5"/><path fill="#f2f2f2" d="M1009.73 360.26H574.99V6.92h434.74z"/><path fill="#2190eb" d="M1009.73 85.73H574.99V6.92h434.74z"/><path opacity=".1" d="M1009.73 85.73H574.99V6.92h434.74z"/><path fill="#e0e0e0" d="M975.09 160.22H609.63v-45.9h365.46zm-.01 50.23H708.35v-15.59h266.73zm0 26.84h-173.2V221.7h173.2zm.01 26.84H746.46v-15.59h228.63zm-.01 26.85H708.35v-15.59h266.73zm.01 26.85h-89.2v-15.59h89.2z"/><path fill="url(#c)" d="M230 159.83h556v456.68H230z" opacity=".5"/><path fill="#fff" d="M236.48 168.46h541.97v440.48H236.48z"/><path fill="#2190eb" d="M236.48 168.46h541.97v98.24H236.48z"/><path fill="#f5f5f5" d="M279.66 302.33h455.6v57.22h-455.6z"/><path fill="#e0e0e0" d="M279.66 402.74h332.52v19.43H279.66zm0 33.47h215.92v19.43H279.66zm0 33.46h285.02v19.43H279.66zm0 33.47h332.52v19.43H279.66zm0 33.47h111.2v19.43h-111.2z"/><path fill="#69f0ae" d="M303.41 321.77h129.55v17.27H303.41z"/></svg>